<?xml version="1.0" encoding="UTF-8"?>
<svg width="120px" height="65px" viewBox="0 0 120 65" version="1.1" xmlns="http://www.w3.org/2000/svg" xmlns:xlink="http://www.w3.org/1999/xlink">
    <!-- Generator: Sketch 42 (36781) - http://www.bohemiancoding.com/sketch -->
    <title>adlk-group</title>
    <desc>Created with Sketch.</desc>
    <defs>
        <filter x="-50%" y="-50%" width="200%" height="200%" filterUnits="objectBoundingBox" id="filter-1">
            <feOffset dx="0" dy="1" in="SourceAlpha" result="shadowOffsetOuter1"></feOffset>
            <feGaussianBlur stdDeviation="1" in="shadowOffsetOuter1" result="shadowBlurOuter1"></feGaussianBlur>
            <feColorMatrix values="0 0 0 0 0   0 0 0 0 0   0 0 0 0 0  0 0 0 0.3 0" type="matrix" in="shadowBlurOuter1" result="shadowMatrixOuter1"></feColorMatrix>
            <feMerge>
                <feMergeNode in="shadowMatrixOuter1"></feMergeNode>
                <feMergeNode in="SourceGraphic"></feMergeNode>
            </feMerge>
        </filter>
        <linearGradient x1="30.4719662%" y1="95.2408507%" x2="68.063052%" y2="3.5648771%" id="linearGradient-2">
            <stop stop-color="#318CC8" offset="0%"></stop>
            <stop stop-color="#5EC0FF" offset="100%"></stop>
        </linearGradient>
        <path d="M29.5671186,59.9675705 C13.237647,59.9675705 0,46.7299236 0,30.4004519 C0,14.0709803 13.237647,0.833333333 29.5671186,0.833333333 C45.8965902,0.833333333 59.1342372,14.0709803 59.1342372,30.4004519 C59.1342372,46.7299236 45.8965902,59.9675705 29.5671186,59.9675705 Z" id="path-3"></path>
        <filter x="-50%" y="-50%" width="200%" height="200%" filterUnits="objectBoundingBox" id="filter-4">
            <feMorphology radius="1.25" operator="dilate" in="SourceAlpha" result="shadowSpreadOuter1"></feMorphology>
            <feOffset dx="0" dy="1" in="shadowSpreadOuter1" result="shadowOffsetOuter1"></feOffset>
            <feGaussianBlur stdDeviation="1" in="shadowOffsetOuter1" result="shadowBlurOuter1"></feGaussianBlur>
            <feComposite in="shadowBlurOuter1" in2="SourceAlpha" operator="out" result="shadowBlurOuter1"></feComposite>
            <feColorMatrix values="0 0 0 0 0   0 0 0 0 0   0 0 0 0 0  0 0 0 0.3 0" type="matrix" in="shadowBlurOuter1"></feColorMatrix>
        </filter>
    </defs>
    <g id="Page-1" stroke="none" stroke-width="1" fill="none" fill-rule="evenodd">
        <g id="logo" transform="translate(-1.000000, 0.000000)">
            <g id="adlk-group" transform="translate(4.000000, 1.000000)">
                <g id="Page-1" filter="url(#filter-1)" transform="translate(53.333333, 0.000000)">
                    <path d="M29.951734,59.6153846 C13.6222624,59.6153846 0.384615385,46.3777376 0.384615385,30.048266 C0.384615385,13.7187944 13.6222624,0.481147424 29.951734,0.481147424 C46.2812056,0.481147424 59.5188526,13.7187944 59.5188526,30.048266 C59.5188526,46.3777376 46.2812056,59.6153846 29.951734,59.6153846 Z" id="Fill-1" stroke="#FFFFFF" stroke-width="2.5" fill="url(#linearGradient-2)"></path>
                    <path d="M40.8193218,39.7759515 C40.2991334,39.7759515 39.777752,39.7461242 39.2560451,39.6885303 L39.2560451,43.1660699 C39.2560451,44.2684875 40.4320006,44.8564652 42.0489665,44.8564652 C43.6659324,44.8564652 47.3407661,45.1505083 48.8106562,42.5780922 C49.5666431,41.2550609 50.049954,39.777253 50.341611,38.5380637 C47.7706048,39.3483905 44.5464347,39.7759515 40.8193218,39.7759515" id="Fill-3" fill="#FEFEFE"></path>
                    <path d="M50.721253,36.0215602 C50.7213615,36.014727 50.7215784,36.0067007 50.7215784,36.0001929 C50.7215784,35.7047398 50.6497759,34.0216115 50.5562809,31.8479052 C50.5492308,31.8480137 50.5428315,31.8482306 50.5356729,31.8482306 C48.6476581,31.8482306 45.8548452,30.9165338 44.4370173,29.8136823 C44.0945997,29.5474057 43.7123762,29.1917557 43.3041216,28.7844772 C41.4215299,31.2340049 39.6248409,34.689418 39.3072613,37.4257217 C39.8033709,37.4891725 40.3081576,37.5235553 40.8193435,37.5235553 C44.8576366,37.5235553 48.2724847,36.9929545 50.721253,36.0215602" id="Fill-5" fill="#FEFEFE"></path>
                    <path d="M45.8200177,28.0358333 C46.832411,28.8233829 49.0605657,29.5681981 50.4596295,29.5945546 C50.3027921,25.9124538 50.1335898,21.76201 50.1335898,20.3820357 C50.1335898,17.809728 50.2079954,15.494586 49.3986448,15.494586 C47.3407769,15.494586 47.8552168,24.4244504 45.2828006,26.6292856 C45.1214077,26.7676843 44.956544,26.9196409 44.7892941,27.0838539 C45.1781339,27.4760559 45.5348686,27.8140265 45.8200177,28.0358333" id="Fill-7" fill="#FEFEFE"></path>
                    <path d="M10.0610578,29.5501499 C11.4368021,29.3757414 13.2421681,28.7220351 14.1242974,28.0358984 C14.475609,27.7625717 14.9354919,27.3128843 15.4306254,26.8023491 C15.3653307,26.7431283 15.3002529,26.6843414 15.2360428,26.6293506 C12.6636267,24.424407 13.1780665,15.4945426 11.1201987,15.4945426 C10.3109565,15.4945426 10.3852536,17.8096846 10.3852536,20.3821008 C10.3852536,21.756435 10.2173529,25.8792208 10.0610578,29.5501499" id="Fill-9" fill="#FEFEFE"></path>
                    <path d="M21.2005731,37.3395804 C20.8402592,34.4934037 18.9129807,30.8970972 16.9604304,28.4603682 C16.4311312,29.0030084 15.9377331,29.4788355 15.5071352,29.8137691 C14.2229336,30.812713 11.8100665,31.6713058 9.96359298,31.8240217 C9.86966405,34.0092251 9.79721079,35.7036335 9.79721079,36.0001713 C9.79721079,36.0653575 9.80024775,36.1457286 9.80577936,36.2371628 C12.2015093,37.0708092 15.3970452,37.5235336 19.1249174,37.5235336 C19.8311197,37.5235336 20.5248489,37.4573712 21.2005731,37.3395804" id="Fill-11" fill="#FEFEFE"></path>
                    <path d="M19.1249499,39.7759515 C15.6917717,39.7759515 12.6843105,39.4137936 10.2218758,38.7234269 C10.517329,39.9228103 10.9894682,41.3204641 11.7081439,42.5780922 C13.1781424,45.1505083 16.8529762,44.8564652 18.4698336,44.8564652 C20.0867995,44.8564652 21.262755,44.2684875 21.262755,43.1660699 L21.262755,39.6133655 C20.549394,39.7209608 19.8361416,39.7759515 19.1249499,39.7759515" id="Fill-13" fill="#FEFEFE"></path>
                    <path d="M52.954538,31.2252844 C52.5192762,31.2252844 52.057007,31.3746379 51.5802038,31.6691149 C51.5121975,31.7110901 51.2357254,31.8481872 50.5357054,31.8481872 C48.6475821,31.8481872 45.8548777,30.9165988 44.4370498,29.8137474 C43.7290036,29.2630809 42.8517551,28.3324687 41.9229867,27.3472996 C39.9696772,25.2753315 38.1247221,23.3183342 36.5281473,23.3183342 C35.3931908,23.3183342 34.0862121,23.8471997 32.8221847,24.3588195 C31.7693347,24.784862 30.6805834,25.2254386 29.9721033,25.2254386 C29.2636232,25.2254386 28.1749804,24.784862 27.1221304,24.3588195 C25.858103,23.8471997 24.5510158,23.3183342 23.4161678,23.3183342 C21.8194845,23.3183342 19.974421,25.27544 18.0212199,27.347408 C17.0924515,28.3325771 16.2152031,29.2630809 15.5071568,29.8137474 C14.0895459,30.9164904 11.296733,31.8480788 9.40850121,31.8481872 C8.7085897,31.8481872 8.4321176,31.7110901 8.36411132,31.6691149 C7.88730812,31.3746379 7.4249305,31.2252844 6.98977708,31.2252844 C6.3738159,31.2252844 5.85416983,31.547311 5.63366462,32.0656555 C5.36185643,32.7047193 5.58821864,33.4896658 6.23899643,34.1654985 C8.29393578,36.2996158 12.9907076,37.5235119 19.1249391,37.5235119 C23.1527113,37.5235119 26.7888237,35.4106533 28.8485355,33.4333735 C29.2664433,33.0322774 29.8115781,33.0118864 29.9165703,33.0118864 L29.9199326,33.0114525 L29.9396729,33.0186111 L30.0136446,33.0121033 L30.0276364,33.0118864 C30.1326285,33.0118864 30.6778718,33.0322774 31.0957796,33.4333735 C33.1554914,35.4106533 36.7914954,37.5235119 40.8192676,37.5235119 C46.9534991,37.5235119 51.6502709,36.2996158 53.7053187,34.1654985 C54.3560965,33.4897742 54.5822418,32.7047193 54.310542,32.0656555 C54.0900368,31.547311 53.5703908,31.2252844 52.954538,31.2252844" id="Fill-15" fill="#FEFEFE"></path>
                </g>
                <g id="Fill-1">
                    <use fill="black" fill-opacity="1" filter="url(#filter-4)" xlink:href="#path-3"></use>
                    <use stroke="#FFFFFF" stroke-width="2.5" fill="#E51F5B" fill-rule="evenodd" xlink:href="#path-3"></use>
                </g>
                <path d="M18.53613,36.1383525 C18.402105,36.1383525 18.134205,36.1215525 17.882955,36.0378525 C17.531205,35.9373525 17.045505,35.6693775 16.44258,34.1787525 C15.42093,31.6330275 12.79143,24.7158525 12.54018,24.0794775 C12.339255,23.5602525 12.272205,23.4764775 12.171705,23.4764775 C12.071205,23.4764775 12.00423,23.5769775 11.803305,24.1297275 L8.001405,34.5305025 C7.699905,35.3679525 7.364955,36.0043275 6.59448,36.1048275 C6.46053,36.1215525 6.30978,36.1383525 6.192555,36.1383525 C6.041805,36.1383525 5.95803,36.1718025 5.95803,36.2388525 C5.95803,36.3393525 6.05853,36.3728025 6.276255,36.3728025 C7.063455,36.3728025 7.984605,36.3225525 8.16888,36.3225525 C8.35308,36.3225525 9.023055,36.3728025 9.42498,36.3728025 C9.57573,36.3728025 9.72648,36.3393525 9.72648,36.2388525 C9.72648,36.1718025 9.67623,36.1383525 9.508755,36.1383525 L9.358005,36.1383525 C9.073305,36.1383525 8.755005,35.9876025 8.755005,35.6525775 C8.755005,35.3511525 8.83878,34.9492275 8.98953,34.5305025 L11.76978,26.1897525 C11.85348,25.9385025 11.937255,25.9385025 12.020955,26.1897525 L15.47118,35.6525775 C15.57168,35.9206275 15.47118,36.0713025 15.37068,36.1048275 C15.303705,36.1215525 15.253455,36.1550775 15.253455,36.2220525 C15.253455,36.3225525 15.437655,36.3225525 15.75588,36.3393525 C16.911555,36.3728025 18.134205,36.3728025 18.38538,36.3728025 C18.569655,36.3728025 18.720405,36.3393525 18.720405,36.2388525 C18.720405,36.1550775 18.63663,36.1383525 18.53613,36.1383525" id="Fill-3" fill="#FEFEFE"></path>
                <path d="M22.0194975,30.37683 C22.0194975,32.15223 22.0362225,33.693105 22.0530225,34.011255 C22.0697475,34.42998 22.1032725,35.099955 22.2372225,35.284155 C22.4549475,35.60238 23.1081225,35.954055 25.0844475,35.954055 C26.6420475,35.954055 28.0824225,35.384655 29.0706225,34.39653 C29.9415225,33.54228 30.4104225,31.934505 30.4104225,30.39363 C30.4104225,28.266555 29.4892725,26.893155 28.8025725,26.173005 C27.2282475,24.514905 25.3189725,24.280455 23.3258475,24.280455 C22.9908975,24.280455 22.3711725,24.330705 22.2372225,24.397605 C22.0864725,24.464655 22.0362225,24.548355 22.0362225,24.73263 C22.0194975,25.302105 22.0194975,27.01038 22.0194975,28.30008 L22.0194975,30.37683 Z M20.6126475,28.568055 C20.6126475,25.95528 20.6126475,25.486305 20.5791225,24.950355 C20.5456725,24.380955 20.4618975,24.112905 19.9092225,23.99568 C19.7751975,23.96223 19.4904975,23.94543 19.3397475,23.94543 C19.2225225,23.94543 19.1554725,23.91198 19.1554725,23.84493 C19.1554725,23.74443 19.2392475,23.71098 19.4235225,23.71098 C20.1771975,23.71098 21.2322975,23.76123 21.3160725,23.76123 C21.5170725,23.76123 22.5721725,23.71098 23.5770975,23.71098 C25.2351975,23.71098 28.3001475,23.56023 30.2932725,25.620255 C31.1307225,26.491155 31.9177725,27.881355 31.9177725,29.874405 C31.9177725,31.98468 31.0469475,33.60933 30.1089975,34.597455 C29.3887725,35.35113 27.8814225,36.52353 25.0341975,36.52353 C24.3140475,36.52353 23.4263475,36.47328 22.7061975,36.42303 C21.9692475,36.37278 21.3997725,36.32253 21.3160725,36.32253 C21.2825475,36.32253 20.9978475,36.32253 20.6460975,36.33933 C20.3111475,36.33933 19.9259475,36.37278 19.6746975,36.37278 C19.4904975,36.37278 19.4067225,36.33933 19.4067225,36.23883 C19.4067225,36.18858 19.4402475,36.13833 19.5741975,36.13833 C19.7584725,36.121605 19.8924225,36.104805 20.0431725,36.071355 C20.3781225,36.004305 20.4618975,35.63583 20.5288725,35.150205 C20.6126475,34.44678 20.6126475,33.12363 20.6126475,31.51578 L20.6126475,28.568055 Z" id="Fill-5" fill="#FEFEFE"></path>
                <path d="M35.61885,31.54929 C35.61885,34.01124 35.685825,35.08314 35.98725,35.38464 C36.2553,35.652615 36.690675,35.76984 37.997025,35.76984 C38.884725,35.76984 39.621675,35.753115 40.0236,35.267415 C40.241325,34.99944 40.408875,34.580715 40.459125,34.26249 C40.47585,34.12854 40.509375,34.044765 40.609875,34.044765 C40.69365,34.044765 40.710375,34.11174 40.710375,34.296015 C40.710375,34.480215 40.59315,35.48514 40.459125,35.97084 C40.341975,36.35604 40.291575,36.423015 39.404025,36.423015 C37.96365,36.423015 36.539925,36.32259 34.915425,36.32259 C34.396125,36.32259 33.8937,36.372765 33.27405,36.372765 C33.089775,36.372765 33.006,36.339315 33.006,36.238815 C33.006,36.188565 33.039525,36.13839 33.140025,36.13839 C33.290775,36.13839 33.491775,36.10479 33.64245,36.07134 C33.977475,36.00429 34.06125,35.635815 34.128225,35.15019 C34.212,34.446765 34.212,33.123615 34.212,31.515765 L34.212,28.56804 C34.212,25.955265 34.212,25.48629 34.178475,24.950415 C34.14495,24.38094 34.011075,24.112965 33.458175,23.995665 C33.3243,23.962215 33.039525,23.945415 32.88885,23.945415 C32.821875,23.945415 32.75475,23.911965 32.75475,23.844915 C32.75475,23.74449 32.8386,23.710965 33.022875,23.710965 C33.77655,23.710965 34.83165,23.761215 34.915425,23.761215 C34.99905,23.761215 36.221775,23.710965 36.7242,23.710965 C36.908475,23.710965 36.992175,23.74449 36.992175,23.844915 C36.992175,23.911965 36.9252,23.945415 36.858225,23.945415 C36.740925,23.945415 36.50655,23.962215 36.30555,23.995665 C35.81985,24.07944 35.685825,24.36414 35.652225,24.950415 C35.61885,25.48629 35.61885,25.955265 35.61885,28.56804 L35.61885,31.54929 Z" id="Fill-7" fill="#FEFEFE"></path>
                <path d="M44.428275,29.63994 C44.947575,29.137515 47.2254,26.74239 48.246975,25.68729 C49.251825,24.64884 49.31895,24.48144 49.31895,24.28044 C49.31895,24.146415 49.235175,24.012465 49.10115,23.962215 C48.983925,23.911965 48.9504,23.878515 48.9504,23.811465 C48.9504,23.74449 49.0509,23.710965 49.20165,23.710965 C49.68735,23.710965 49.6371,23.761215 50.2065,23.761215 C50.7258,23.761215 51.71385,23.710965 51.9819,23.710965 C52.216425,23.710965 52.266675,23.761215 52.266675,23.828265 C52.266675,23.895165 52.233075,23.928765 52.0824,23.945415 C51.76425,23.979015 51.46275,24.045915 51.228225,24.146415 C50.809425,24.31389 50.491275,24.51489 49.48635,25.48629 C48.01245,26.90994 46.103175,28.80249 45.66765,29.288265 C46.722825,30.443865 49.771125,33.542265 50.558175,34.279215 C51.93165,35.568915 52.51785,35.93739 53.321775,36.08814 C53.472525,36.12159 53.639925,36.13839 53.80755,36.13839 C53.941425,36.13839 54.041925,36.17184 54.041925,36.25554 C54.041925,36.339315 53.97495,36.372765 53.790675,36.372765 L52.5513,36.372765 C51.0942,36.372765 50.708925,36.188565 49.921875,35.568915 C48.916875,34.781715 45.902175,31.54929 44.428275,29.79069 L44.428275,31.515765 C44.428275,33.123615 44.428275,34.446765 44.51205,35.15019 C44.5623,35.635815 44.6628,36.00429 45.165225,36.07134 C45.39975,36.10479 45.734775,36.13839 45.835275,36.13839 C45.986025,36.13839 46.0362,36.20529 46.0362,36.25554 C46.0362,36.339315 45.96915,36.372765 45.785025,36.372765 C44.8638,36.372765 43.808625,36.32259 43.72485,36.32259 C43.641225,36.32259 42.653025,36.372765 42.1506,36.372765 C41.966325,36.372765 41.88255,36.35604 41.88255,36.25554 C41.88255,36.20529 41.916075,36.13839 42.066825,36.13839 C42.167325,36.13839 42.3516,36.12159 42.502275,36.08814 C42.8373,36.02109 42.9378,35.635815 43.004775,35.15019 C43.08855,34.446765 43.08855,33.123615 43.08855,31.515765 L43.08855,28.56804 C43.08855,25.955265 43.08855,25.48629 43.05495,24.950415 C43.021425,24.38094 42.854025,24.096165 42.485475,24.012465 C42.30135,23.962215 41.99985,23.945415 41.88255,23.945415 C41.7486,23.945415 41.698425,23.911965 41.698425,23.844915 C41.698425,23.74449 41.78205,23.710965 41.966325,23.710965 C42.519,23.710965 43.641225,23.761215 43.72485,23.761215 C43.808625,23.761215 44.8638,23.710965 45.366225,23.710965 C45.5505,23.710965 45.634275,23.74449 45.634275,23.828265 C45.634275,23.895165 45.60075,23.928765 45.45,23.945415 C45.265725,23.962215 45.249,23.962215 45.0816,23.979015 C44.629275,24.02919 44.4954,24.36414 44.4618,24.950415 C44.428275,25.48629 44.428275,25.955265 44.428275,28.56804 L44.428275,29.63994 Z" id="Fill-9" fill="#FEFEFE"></path>
            </g>
        </g>
    </g>
</svg>