<?xml version="1.0" encoding="utf-8"?>
<!-- Generator: Adobe Illustrator 22.0.0, SVG Export Plug-In . SVG Version: 6.00 Build 0)  -->
<svg version="1.1" id="Layer_1" xmlns="http://www.w3.org/2000/svg" xmlns:xlink="http://www.w3.org/1999/xlink" x="0px" y="0px"
	 viewBox="0 0 80 80" style="enable-background:new 0 0 80 80;" xml:space="preserve">
<style type="text/css">
	.st0{filter:url(#filter-1);}
	.st1{stroke:#FFFFFF;stroke-width:2.5;}
	.st2{fill:#FEFEFE;}
</style>
<filter  filterUnits="objectBoundingBox" height="200%" id="filter-1" width="200%" x="-50%" y="-50%">
	<feOffset  dx="0" dy="1" in="SourceAlpha" result="shadowOffsetOuter1"></feOffset>
	<feGaussianBlur  in="shadowOffsetOuter1" result="shadowBlurOuter1" stdDeviation="1"></feGaussianBlur>
	
		<feColorMatrix  in="shadowBlurOuter1" result="shadowMatrixOuter1" type="matrix" values="0 0 0 0 0   0 0 0 0 0   0 0 0 0 0  0 0 0 0.3 0">
		</feColorMatrix>
	<feMerge>
		<feMergeNode  in="shadowMatrixOuter1"></feMergeNode>
		<feMergeNode  in="SourceGraphic"></feMergeNode>
	</feMerge>
</filter>
<title>franz</title>
<desc>Created with Sketch.</desc>
<g id="icons">
	<g id="franz">
		<g id="Page-1" transform="translate(4.000000, 4.000000)" class="st0">
			<path id="Fill-1_1_" class="st1" d="M35.9,71.5c-19.6,0-35.5-15.9-35.5-35.5S16.3,0.6,35.9,0.6s35.5,15.9,35.5,35.5
				S55.5,71.5,35.9,71.5z"/>
			<path id="Fill-3_1_" class="st2" d="M49,47.7c-0.6,0-1.2,0-1.9-0.1v4.2c0,1.3,1.4,2,3.4,2c1.9,0,6.4,0.4,8.1-2.7
				c0.9-1.6,1.5-3.4,1.8-4.8C57.3,47.2,53.5,47.7,49,47.7"/>
			<path id="Fill-5_1_" class="st2" d="M60.9,43.2C60.9,43.2,60.9,43.2,60.9,43.2c0-0.4-0.1-2.4-0.2-5c0,0,0,0,0,0
				c-2.3,0-5.6-1.1-7.3-2.4c-0.4-0.3-0.9-0.7-1.4-1.2c-2.3,2.9-4.4,7.1-4.8,10.4C47.8,45,48.4,45,49,45C53.8,45,57.9,44.4,60.9,43.2
				"/>
			<path id="Fill-7_1_" class="st2" d="M55,33.6c1.2,0.9,3.9,1.8,5.6,1.9c-0.2-4.4-0.4-9.4-0.4-11.1c0-3.1,0.1-5.9-0.9-5.9
				c-2.5,0-1.9,10.7-4.9,13.4c-0.2,0.2-0.4,0.3-0.6,0.5C54.2,33,54.6,33.4,55,33.6"/>
			<path id="Fill-9_1_" class="st2" d="M12.1,35.5c1.7-0.2,3.8-1,4.9-1.8c0.4-0.3,1-0.9,1.6-1.5c-0.1-0.1-0.2-0.1-0.2-0.2
				c-3.1-2.6-2.5-13.4-4.9-13.4c-1,0-0.9,2.8-0.9,5.9C12.5,26.1,12.3,31.1,12.1,35.5"/>
			<path id="Fill-11_1_" class="st2" d="M25.4,44.8c-0.4-3.4-2.7-7.7-5.1-10.7c-0.6,0.7-1.2,1.2-1.7,1.6C17.1,37,14.2,38,12,38.2
				c-0.1,2.6-0.2,4.7-0.2,5c0,0.1,0,0.2,0,0.3c2.9,1,6.7,1.5,11.2,1.5C23.8,45,24.6,44.9,25.4,44.8"/>
			<path id="Fill-13_1_" class="st2" d="M22.9,47.7c-4.1,0-7.7-0.4-10.7-1.3c0.4,1.4,0.9,3.1,1.8,4.6c1.8,3.1,6.2,2.7,8.1,2.7
				c1.9,0,3.4-0.7,3.4-2v-4.3C24.7,47.7,23.8,47.7,22.9,47.7"/>
			<path id="Fill-15_1_" class="st2" d="M63.5,37.5c-0.5,0-1.1,0.2-1.6,0.5c-0.1,0.1-0.4,0.2-1.3,0.2c-2.3,0-5.6-1.1-7.3-2.4
				c-0.8-0.7-1.9-1.8-3-3C48,30.3,45.7,28,43.8,28c-1.4,0-2.9,0.6-4.4,1.2c-1.3,0.5-2.6,1-3.4,1c-0.9,0-2.2-0.5-3.4-1
				C31,28.6,29.5,28,28.1,28c-1.9,0-4.1,2.3-6.5,4.8c-1.1,1.2-2.2,2.3-3,3c-1.7,1.3-5.1,2.4-7.3,2.4c-0.8,0-1.2-0.2-1.3-0.2
				c-0.6-0.4-1.1-0.5-1.6-0.5c-0.7,0-1.4,0.4-1.6,1c-0.3,0.8-0.1,1.7,0.7,2.5c2.5,2.6,8.1,4,15.5,4c4.8,0,9.2-2.5,11.7-4.9
				c0.5-0.5,1.2-0.5,1.3-0.5l0,0l0,0l0.1,0l0,0c0.1,0,0.8,0,1.3,0.5C39.8,42.5,44.1,45,49,45c7.4,0,13-1.5,15.5-4
				c0.8-0.8,1.1-1.8,0.7-2.5C64.9,37.9,64.3,37.5,63.5,37.5"/>
		</g>
	</g>
</g>
</svg>
